<svg xmlns="http://www.w3.org/2000/svg" viewBox="0 0 382.98 100"><path fill="#0B73C2" d="M17.1875,32.8125c0,4.7462 -3.84755,8.59375 -8.59375,8.59375c-4.7462,0 -8.59375,-3.84755 -8.59375,-8.59375v-10.15625c0,-12.5127 10.14355,-22.65625 22.65625,-22.65625h27.34375c27.61424,0 50,22.38576 50,50c0,27.61424 -22.38576,50 -50,50h-27.34375c-12.5127,0 -22.65625,-10.14355 -22.65625,-22.65625v-8.59375c0,-10.25435 6.88744,-19.23024 16.79238,-21.88426c9.84504,-2.63797 20.23119,1.6235 25.39116,10.39553c0.78999,1.29963 1.24494,2.82543 1.24494,4.45748c0,4.7462 -3.84755,8.59375 -8.59375,8.59375c-3.22527,0 -6.03556,-1.77675 -7.50548,-4.40485c-0.95997,-1.57488 -2.69369,-2.6264 -4.673,-2.6264c-3.02031,0 -5.46875,2.44844 -5.46875,5.46875v8.59375c0,3.02031 2.44844,5.46875 5.46875,5.46875h27.34375c18.12184,0 32.8125,-14.69066 32.8125,-32.8125c0,-18.12184 -14.69066,-32.8125 -32.8125,-32.8125h-27.34375c-3.02031,0 -5.46875,2.44844 -5.46875,5.46875z"/><path fill="#060E24" d="M141.78,72h-13.78v-44h13.78c0.40667,0 1.16333,0.01 2.27,0.03c1.11333,0.02 2.18,0.1 3.2,0.24v0c3.44,0.43333 6.33667,1.66667 8.69,3.7c2.35333,2.04 4.13,4.62333 5.33,7.75c1.20667,3.12667 1.81,6.55333 1.81,10.28v0c0,3.74667 -0.60333,7.18333 -1.81,10.31c-1.2,3.12667 -2.97667,5.70333 -5.33,7.73c-2.35333,2.02667 -5.25,3.25333 -8.69,3.68v0c-1.02,0.14667 -2.08667,0.23 -3.2,0.25c-1.10667,0.02 -1.86333,0.03 -2.27,0.03zM134.54,34.08v31.84h7.24c0.69333,0 1.51667,-0.02 2.47,-0.06c0.96,-0.04 1.80667,-0.12333 2.54,-0.25v0c2.24,-0.42667 4.05667,-1.39667 5.45,-2.91c1.4,-1.52 2.42333,-3.39 3.07,-5.61c0.65333,-2.22 0.98,-4.58333 0.98,-7.09v0c0,-2.58667 -0.33667,-4.98667 -1.01,-7.2c-0.66667,-2.20667 -1.7,-4.06 -3.1,-5.56c-1.39333,-1.49333 -3.19,-2.44333 -5.39,-2.85v0c-0.73333,-0.14667 -1.58333,-0.23333 -2.55,-0.26c-0.96667,-0.03333 -1.78667,-0.05 -2.46,-0.05v0zM179.21,72.92v0c-2.44667,0 -4.49333,-0.45333 -6.14,-1.36c-1.65333,-0.90667 -2.90333,-2.11 -3.75,-3.61c-0.84,-1.49333 -1.26,-3.13667 -1.26,-4.93v0c0,-1.67333 0.29333,-3.14 0.88,-4.4c0.59333,-1.26667 1.47,-2.34333 2.63,-3.23c1.16,-0.88667 2.58667,-1.60333 4.28,-2.15v0c1.46667,-0.42667 3.12667,-0.80333 4.98,-1.13c1.85333,-0.32667 3.81,-0.63333 5.87,-0.92v0c1.24,-0.18 2.49,-0.35333 3.75,-0.52v0c-0.1,-2.12 -0.64,-3.73 -1.62,-4.83v0c-1.14,-1.24 -3.08333,-1.86 -5.83,-1.86v0c-1.73333,0 -3.32333,0.40333 -4.77,1.21c-1.44667,0.8 -2.45333,2.12667 -3.02,3.98v0l-5.96,-1.83c0.81333,-2.83333 2.36667,-5.08333 4.66,-6.75c2.29333,-1.67333 5.34333,-2.51 9.15,-2.51v0c2.95333,0 5.52333,0.50667 7.71,1.52c2.19333,1.00667 3.8,2.6 4.82,4.78v0c0.52667,1.08 0.85,2.22 0.97,3.42c0.12667,1.2 0.19,2.49333 0.19,3.88v0v20.32h-5.65v-4.8c-1.16667,1.65333 -2.53333,2.93667 -4.1,3.85v0c-2.12,1.24667 -4.71667,1.87 -7.79,1.87zM180.34,67.69v0c1.81333,0 3.37,-0.32 4.67,-0.96c1.30667,-0.64 2.35667,-1.46 3.15,-2.46c0.79333,-1 1.31333,-2.04 1.56,-3.12v0c0.34667,-0.97333 0.55,-2.07333 0.61,-3.3v0c0.02,-0.69333 0.04,-1.31333 0.06,-1.86v0c-1.22,0.18 -2.36,0.35333 -3.42,0.52v0c-1.64667,0.24 -3.14,0.48 -4.48,0.72c-1.33333,0.23333 -2.52,0.51333 -3.56,0.84v0c-0.87333,0.3 -1.65,0.66667 -2.33,1.1c-0.68667,0.42667 -1.22667,0.94333 -1.62,1.55c-0.4,0.61333 -0.6,1.36 -0.6,2.24v0c0,0.85333 0.21333,1.64 0.64,2.36c0.42667,0.72667 1.08,1.30333 1.96,1.73c0.87333,0.42667 1.99333,0.64 3.36,0.64zM211.38,72h-6.38v-44.92h6.38zM229.56,72.92v0c-2.44,0 -4.48667,-0.45333 -6.14,-1.36c-1.64667,-0.90667 -2.89333,-2.11 -3.74,-3.61c-0.84667,-1.49333 -1.27,-3.13667 -1.27,-4.93v0c0,-1.67333 0.29667,-3.14 0.89,-4.4c0.58667,-1.26667 1.46333,-2.34333 2.63,-3.23c1.16,-0.88667 2.58333,-1.60333 4.27,-2.15v0c1.46667,-0.42667 3.12667,-0.80333 4.98,-1.13c1.85333,-0.32667 3.81,-0.63333 5.87,-0.92v0c1.24,-0.18 2.49333,-0.35333 3.76,-0.52v0c-0.1,-2.12 -0.64,-3.73 -1.62,-4.83v0c-1.14,-1.24 -3.08667,-1.86 -5.84,-1.86v0c-1.72667,0 -3.31333,0.40333 -4.76,1.21c-1.44667,0.8 -2.45667,2.12667 -3.03,3.98v0l-5.96,-1.83c0.82,-2.83333 2.37333,-5.08333 4.66,-6.75c2.29333,-1.67333 5.34333,-2.51 9.15,-2.51v0c2.96,0 5.53333,0.50667 7.72,1.52c2.18667,1.00667 3.79,2.6 4.81,4.78v0c0.53333,1.08 0.86,2.22 0.98,3.42c0.12,1.2 0.18,2.49333 0.18,3.88v0v20.32h-5.65v-4.8c-1.16,1.65333 -2.52333,2.93667 -4.09,3.85v0c-2.12,1.24667 -4.72,1.87 -7.8,1.87zM230.69,67.69v0c1.81333,0 3.37333,-0.32 4.68,-0.96c1.30667,-0.64 2.35667,-1.46 3.15,-2.46c0.79333,-1 1.31333,-2.04 1.56,-3.12v0c0.34667,-0.97333 0.55,-2.07333 0.61,-3.3v0c0.02,-0.69333 0.04,-1.31333 0.06,-1.86v0c-1.22667,0.18 -2.36667,0.35333 -3.42,0.52v0c-1.65333,0.24 -3.14667,0.48 -4.48,0.72c-1.33333,0.23333 -2.52,0.51333 -3.56,0.84v0c-0.87333,0.3 -1.65333,0.66667 -2.34,1.1c-0.68,0.42667 -1.22,0.94333 -1.62,1.55c-0.39333,0.61333 -0.59,1.36 -0.59,2.24v0c0,0.85333 0.21333,1.64 0.64,2.36c0.42667,0.72667 1.07667,1.30333 1.95,1.73c0.88,0.42667 2,0.64 3.36,0.64zM268.43,72h-6.39v-37.98h-14.63v-6.02h35.66v6.02h-14.64zM297.4,72.92v0c-3.28,0 -6.15667,-0.72 -8.63,-2.16c-2.48,-1.43333 -4.40667,-3.44 -5.78,-6.02c-1.37333,-2.57333 -2.06,-5.56333 -2.06,-8.97v0c0,-3.6 0.67667,-6.72667 2.03,-9.38c1.35333,-2.64667 3.24333,-4.69333 5.67,-6.14c2.42,-1.44667 5.24,-2.17 8.46,-2.17v0c3.36,0 6.22333,0.78 8.59,2.34c2.36,1.56 4.12667,3.77667 5.3,6.65c1.17333,2.86667 1.63667,6.27667 1.39,10.23v0h-24.6c0.24667,2.77333 1.03333,4.97333 2.36,6.6v0c1.60667,2 3.92667,3 6.96,3v0c2,0 3.72667,-0.45333 5.18,-1.36c1.46,-0.90667 2.59667,-2.20667 3.41,-3.9v0l6.26,1.99c-1.28,2.95333 -3.22333,5.24 -5.83,6.86c-2.61333,1.62 -5.51667,2.43 -8.71,2.43zM287.93,52.32h17.9c-0.28667,-2.50667 -0.96,-4.45 -2.02,-5.83v0c-1.42,-1.83333 -3.57667,-2.75 -6.47,-2.75v0c-3.2,0 -5.60333,1.00667 -7.21,3.02v0c-1.12667,1.40667 -1.86,3.26 -2.2,5.56zM333.03,72.92v0c-3.38667,0 -6.26,-0.75333 -8.62,-2.26c-2.36667,-1.51333 -4.17333,-3.58333 -5.42,-6.21c-1.25333,-2.62667 -1.89,-5.61 -1.91,-8.95v0c0.02,-3.4 0.67,-6.41 1.95,-9.03c1.28667,-2.62 3.12,-4.67333 5.5,-6.16c2.38667,-1.48667 5.25,-2.23 8.59,-2.23v0c3.60667,0 6.68667,0.89667 9.24,2.69c2.55333,1.79333 4.24,4.25 5.06,7.37v0l-6.36,1.83c-0.63333,-1.85333 -1.66667,-3.29333 -3.1,-4.32c-1.43333,-1.03333 -3.07667,-1.55 -4.93,-1.55v0c-2.1,0 -3.82333,0.49333 -5.17,1.48c-1.34,0.99333 -2.33667,2.34333 -2.99,4.05c-0.65333,1.71333 -0.99,3.67 -1.01,5.87v0c0.02,3.4 0.8,6.15 2.34,8.25c1.53333,2.1 3.81,3.15 6.83,3.15v0c2.05333,0 3.71667,-0.47333 4.99,-1.42c1.27333,-0.94667 2.24667,-2.30667 2.92,-4.08v0l6.48,1.52c-1.08,3.22 -2.86333,5.69 -5.35,7.41c-2.48667,1.72667 -5.5,2.59 -9.04,2.59zM382.98,72h-6.47v-16.23c0,-1.28 -0.10667,-2.59667 -0.32,-3.95c-0.22,-1.35333 -0.63,-2.61333 -1.23,-3.78c-0.6,-1.16 -1.44333,-2.09667 -2.53,-2.81c-1.09333,-0.71333 -2.51667,-1.07 -4.27,-1.07v0c-1.14,0 -2.21667,0.19 -3.23,0.57c-1.02,0.37333 -1.91333,0.98 -2.68,1.82c-0.76,0.83333 -1.36,1.93333 -1.8,3.3c-0.44,1.36 -0.66,3.02 -0.66,4.98v0v17.17h-6.48v-44h5.72v14.97c0.91333,-1.16 2.01333,-2.13667 3.3,-2.93v0c2.1,-1.28667 4.63667,-1.93 7.61,-1.93v0c2.28,0 4.19333,0.36667 5.74,1.1c1.54667,0.73333 2.80333,1.69667 3.77,2.89c0.97333,1.19333 1.71333,2.49333 2.22,3.9c0.50667,1.40667 0.85333,2.78 1.04,4.12c0.18,1.34667 0.27,2.53 0.27,3.55v0z"/></svg>
